<?xml version="1.0" encoding="utf-8" standalone="yes"?>
<svg xmlns="http://www.w3.org/2000/svg" xmlns:xlink="http://www.w3.org/1999/xlink"
     version="1.1" baseProfile="full"
     viewBox="0 0 316 80" preserveAspectRatio="xMidYMid meet" id="svg_document" style="zoom: 1;">
    <title id="svg_document_title">Untitled.svg</title>
    <defs id="svg_document_defs">
        <g id="gear" mask="url(#holes)">
            <circle r="43" fill="none" stroke="#8b6560" stroke-width="9"/>
            <g id="cogs">
                <polygon id="cog" stroke="#8b6560" stroke-width="3" stroke-linejoin="round"
                         points="46,3 51,0 46,-3"/>
                <use xlink:href="#cog" transform="rotate(11.25)"/>
                <use xlink:href="#cog" transform="rotate(22.50)"/>
                <use xlink:href="#cog" transform="rotate(33.75)"/>
                <use xlink:href="#cog" transform="rotate(45.00)"/>
                <use xlink:href="#cog" transform="rotate(56.25)"/>
                <use xlink:href="#cog" transform="rotate(67.50)"/>
                <use xlink:href="#cog" transform="rotate(78.75)"/>
                <use xlink:href="#cog" transform="rotate(90.00)"/>
                <use xlink:href="#cog" transform="rotate(101.25)"/>
                <use xlink:href="#cog" transform="rotate(112.50)"/>
                <use xlink:href="#cog" transform="rotate(123.75)"/>
                <use xlink:href="#cog" transform="rotate(135.00)"/>
                <use xlink:href="#cog" transform="rotate(146.25)"/>
                <use xlink:href="#cog" transform="rotate(157.50)"/>
                <use xlink:href="#cog" transform="rotate(168.75)"/>
                <use xlink:href="#cog" transform="rotate(180.00)"/>
                <use xlink:href="#cog" transform="rotate(191.25)"/>
                <use xlink:href="#cog" transform="rotate(202.50)"/>
                <use xlink:href="#cog" transform="rotate(213.75)"/>
                <use xlink:href="#cog" transform="rotate(225.00)"/>
                <use xlink:href="#cog" transform="rotate(236.25)"/>
                <use xlink:href="#cog" transform="rotate(247.50)"/>
                <use xlink:href="#cog" transform="rotate(258.75)"/>
                <use xlink:href="#cog" transform="rotate(270.00)"/>
                <use xlink:href="#cog" transform="rotate(281.25)"/>
                <use xlink:href="#cog" transform="rotate(292.50)"/>
                <use xlink:href="#cog" transform="rotate(303.75)"/>
                <use xlink:href="#cog" transform="rotate(315.00)"/>
                <use xlink:href="#cog" transform="rotate(326.25)"/>
                <use xlink:href="#cog" transform="rotate(337.50)"/>
                <use xlink:href="#cog" transform="rotate(348.75)"/>
            </g>
            <g id="mounts">
                <polygon id="mount" stroke="#8b6560" stroke-width="6" stroke-linejoin="round"
                         points="-7,-42 0,-35 7,-42"/>
                <use xlink:href="#mount" transform="rotate(72)"/>
                <use xlink:href="#mount" transform="rotate(144)"/>
                <use xlink:href="#mount" transform="rotate(216)"/>
                <use xlink:href="#mount" transform="rotate(288)"/>
            </g>
        </g>
        <mask id="holes">
            <rect x="-60" y="-60" width="120" height="120" fill="white"/>
            <circle id="hole" cy="-40" r="3"/>
            <path id="checkmask"
                  d="M6.218 13.64l3.288 3.098 10.073-9.92.637.637L9.506 18.01 5.58 14.276z"
                  fill="full" stroke="black" stroke-width="1" stroke-linecap="round"
                  stroke-linejoin="round"/>
            <use xlink:href="#hole" transform="rotate(72)"/>
            <use xlink:href="#hole" transform="rotate(144)"/>
            <use xlink:href="#hole" transform="rotate(216)"/>
            <use xlink:href="#hole" transform="rotate(288)"/>
            <use xlink:href="#checkmask" transform="translate(-50,-98) scale(5.8)"/>
            <use xlink:href="#checkmask" transform="translate(-50,-78) scale(5.8)"/>
        </mask>
        <g id="checkmark">
            <path d="M6.218 13.64l3.288 3.098 10.073-9.92.637.637L9.506 18.01 5.58 14.276z"
                  fill="full" stroke="#222222" stroke-width="1" stroke-linecap="round"
                  stroke-linejoin="round" transform="scale(2.9)"/>
        </g>
        <g id="googletest">
            <path
                    d="M21.2 10.48C20.56 9.30667 19.68 8.41333 18.56 7.8C17.44 7.18667 16.1333 6.88 14.64 6.88C12.9867 6.88 11.52 7.25333 10.24 8C8.96 8.74667 7.96 9.81333 7.24 11.2C6.52 12.5867 6.16 14.1867 6.16 16C6.16 17.8667 6.52 19.4933 7.24 20.88C7.98667 22.2667 9.01333 23.3333 10.32 24.08C11.6267 24.8267 13.1467 25.2 14.88 25.2C17.0133 25.2 18.76 24.64 20.12 23.52C21.48 22.3733 22.3733 20.7867 22.8 18.76H13.2V14.48H28.32V19.36C27.9467 21.3067 27.1467 23.1067 25.92 24.76C24.6933 26.4133 23.1067 27.7467 21.16 28.76C19.24 29.7467 17.08 30.24 14.68 30.24C11.9867 30.24 9.54667 29.64 7.36 28.44C5.2 27.2133 3.49333 25.52 2.24 23.36C1.01333 21.2 0.4 18.7467 0.4 16C0.4 13.2533 1.01333 10.8 2.24 8.64C3.49333 6.45333 5.2 4.76 7.36 3.56C9.54667 2.33333 11.9733 1.72 14.64 1.72C17.7867 1.72 20.52 2.49333 22.84 4.04C25.16 5.56 26.76 7.70667 27.64 10.48H21.2ZM42.3031 30.36C40.1698 30.36 38.2498 29.8933 36.5431 28.96C34.8365 28 33.4898 26.6533 32.5031 24.92C31.5431 23.1867 31.0631 21.1867 31.0631 18.92C31.0631 16.6533 31.5565 14.6533 32.5431 12.92C33.5565 11.1867 34.9298 9.85333 36.6631 8.92C38.3965 7.96 40.3298 7.48 42.4631 7.48C44.5965 7.48 46.5298 7.96 48.2631 8.92C49.9965 9.85333 51.3565 11.1867 52.3431 12.92C53.3565 14.6533 53.8631 16.6533 53.8631 18.92C53.8631 21.1867 53.3431 23.1867 52.3031 24.92C51.2898 26.6533 49.9031 28 48.1431 28.96C46.4098 29.8933 44.4631 30.36 42.3031 30.36ZM42.3031 25.48C43.3165 25.48 44.2631 25.24 45.1431 24.76C46.0498 24.2533 46.7698 23.5067 47.3031 22.52C47.8365 21.5333 48.1031 20.3333 48.1031 18.92C48.1031 16.8133 47.5431 15.2 46.4231 14.08C45.3298 12.9333 43.9831 12.36 42.3831 12.36C40.7831 12.36 39.4365 12.9333 38.3431 14.08C37.2765 15.2 36.7431 16.8133 36.7431 18.92C36.7431 21.0267 37.2631 22.6533 38.3031 23.8C39.3698 24.92 40.7031 25.48 42.3031 25.48ZM67.8109 30.36C65.6776 30.36 63.7576 29.8933 62.0509 28.96C60.3443 28 58.9976 26.6533 58.0109 24.92C57.0509 23.1867 56.5709 21.1867 56.5709 18.92C56.5709 16.6533 57.0643 14.6533 58.0509 12.92C59.0643 11.1867 60.4376 9.85333 62.1709 8.92C63.9043 7.96 65.8376 7.48 67.9709 7.48C70.1043 7.48 72.0376 7.96 73.7709 8.92C75.5043 9.85333 76.8643 11.1867 77.8509 12.92C78.8643 14.6533 79.3709 16.6533 79.3709 18.92C79.3709 21.1867 78.8509 23.1867 77.8109 24.92C76.7976 26.6533 75.4109 28 73.6509 28.96C71.9176 29.8933 69.9709 30.36 67.8109 30.36ZM67.8109 25.48C68.8243 25.48 69.7709 25.24 70.6509 24.76C71.5576 24.2533 72.2776 23.5067 72.8109 22.52C73.3443 21.5333 73.6109 20.3333 73.6109 18.92C73.6109 16.8133 73.0509 15.2 71.9309 14.08C70.8376 12.9333 69.4909 12.36 67.8909 12.36C66.2909 12.36 64.9443 12.9333 63.8509 14.08C62.7843 15.2 62.2509 16.8133 62.2509 18.92C62.2509 21.0267 62.7709 22.6533 63.8109 23.8C64.8776 24.92 66.2109 25.48 67.8109 25.48ZM92.1588 7.48C93.8121 7.48 95.2654 7.81333 96.5188 8.48C97.7721 9.12 98.7588 9.96 99.4788 11V7.84H105.119V30.16C105.119 32.2133 104.705 34.04 103.879 35.64C103.052 37.2667 101.812 38.5467 100.159 39.48C98.5054 40.44 96.5054 40.92 94.1588 40.92C91.0121 40.92 88.4254 40.1867 86.3988 38.72C84.3988 37.2533 83.2654 35.2533 82.9988 32.72H88.5588C88.8521 33.7333 89.4788 34.5333 90.4388 35.12C91.4254 35.7333 92.6121 36.04 93.9988 36.04C95.6254 36.04 96.9454 35.5467 97.9588 34.56C98.9721 33.6 99.4788 32.1333 99.4788 30.16V26.72C98.7588 27.76 97.7588 28.6267 96.4788 29.32C95.2254 30.0133 93.7854 30.36 92.1588 30.36C90.2921 30.36 88.5854 29.88 87.0388 28.92C85.4921 27.96 84.2654 26.6133 83.3587 24.88C82.4787 23.12 82.0387 21.1067 82.0387 18.84C82.0387 16.6 82.4787 14.6133 83.3587 12.88C84.2654 11.1467 85.4788 9.81333 86.9988 8.88C88.5454 7.94667 90.2654 7.48 92.1588 7.48ZM99.4788 18.92C99.4788 17.56 99.2121 16.4 98.6788 15.44C98.1454 14.4533 97.4254 13.7067 96.5188 13.2C95.6121 12.6667 94.6388 12.4 93.5988 12.4C92.5588 12.4 91.5988 12.6533 90.7188 13.16C89.8388 13.6667 89.1188 14.4133 88.5588 15.4C88.0254 16.36 87.7588 17.5067 87.7588 18.84C87.7588 20.1733 88.0254 21.3467 88.5588 22.36C89.1188 23.3467 89.8388 24.1067 90.7188 24.64C91.6254 25.1733 92.5854 25.44 93.5988 25.44C94.6388 25.44 95.6121 25.1867 96.5188 24.68C97.4254 24.1467 98.1454 23.4 98.6788 22.44C99.2121 21.4533 99.4788 20.28 99.4788 18.92ZM116.188 0.4V30H110.588V0.4H116.188ZM142.321 18.44C142.321 19.24 142.268 19.96 142.161 20.6H125.961C126.094 22.2 126.654 23.4533 127.641 24.36C128.628 25.2667 129.841 25.72 131.281 25.72C133.361 25.72 134.841 24.8267 135.721 23.04H141.761C141.121 25.1733 139.894 26.9333 138.081 28.32C136.268 29.68 134.041 30.36 131.401 30.36C129.268 30.36 127.348 29.8933 125.641 28.96C123.961 28 122.641 26.6533 121.681 24.92C120.748 23.1867 120.281 21.1867 120.281 18.92C120.281 16.6267 120.748 14.6133 121.681 12.88C122.614 11.1467 123.921 9.81333 125.601 8.88C127.281 7.94667 129.214 7.48 131.401 7.48C133.508 7.48 135.388 7.93333 137.041 8.84C138.721 9.74667 140.014 11.04 140.921 12.72C141.854 14.3733 142.321 16.28 142.321 18.44ZM136.521 16.84C136.494 15.4 135.974 14.2533 134.961 13.4C133.948 12.52 132.708 12.08 131.241 12.08C129.854 12.08 128.681 12.5067 127.721 13.36C126.788 14.1867 126.214 15.3467 126.001 16.84H136.521ZM165.408 2.08V6.6H157.968V30H152.368V6.6H144.928V2.08H165.408ZM190.094 18.44C190.094 19.24 190.041 19.96 189.934 20.6H173.734C173.868 22.2 174.428 23.4533 175.414 24.36C176.401 25.2667 177.614 25.72 179.054 25.72C181.134 25.72 182.614 24.8267 183.494 23.04H189.534C188.894 25.1733 187.668 26.9333 185.854 28.32C184.041 29.68 181.814 30.36 179.174 30.36C177.041 30.36 175.121 29.8933 173.414 28.96C171.734 28 170.414 26.6533 169.454 24.92C168.521 23.1867 168.054 21.1867 168.054 18.92C168.054 16.6267 168.521 14.6133 169.454 12.88C170.388 11.1467 171.694 9.81333 173.374 8.88C175.054 7.94667 176.988 7.48 179.174 7.48C181.281 7.48 183.161 7.93333 184.814 8.84C186.494 9.74667 187.788 11.04 188.694 12.72C189.628 14.3733 190.094 16.28 190.094 18.44ZM184.294 16.84C184.268 15.4 183.748 14.2533 182.734 13.4C181.721 12.52 180.481 12.08 179.014 12.08C177.628 12.08 176.454 12.5067 175.494 13.36C174.561 14.1867 173.988 15.3467 173.774 16.84H184.294ZM202.662 30.36C200.849 30.36 199.222 30.04 197.782 29.4C196.342 28.7333 195.195 27.84 194.342 26.72C193.515 25.6 193.062 24.36 192.982 23H198.622C198.729 23.8533 199.142 24.56 199.862 25.12C200.609 25.68 201.529 25.96 202.622 25.96C203.689 25.96 204.515 25.7467 205.102 25.32C205.715 24.8933 206.022 24.3467 206.022 23.68C206.022 22.96 205.649 22.4267 204.902 22.08C204.182 21.7067 203.022 21.3067 201.422 20.88C199.769 20.48 198.409 20.0667 197.342 19.64C196.302 19.2133 195.395 18.56 194.622 17.68C193.875 16.8 193.502 15.6133 193.502 14.12C193.502 12.8933 193.849 11.7733 194.542 10.76C195.262 9.74666 196.275 8.94667 197.582 8.36C198.915 7.77333 200.475 7.48 202.262 7.48C204.902 7.48 207.009 8.14667 208.582 9.48C210.155 10.7867 211.022 12.56 211.182 14.8H205.822C205.742 13.92 205.369 13.2267 204.702 12.72C204.062 12.1867 203.195 11.92 202.102 11.92C201.089 11.92 200.302 12.1067 199.742 12.48C199.209 12.8533 198.942 13.3733 198.942 14.04C198.942 14.7867 199.315 15.36 200.062 15.76C200.809 16.1333 201.969 16.52 203.542 16.92C205.142 17.32 206.462 17.7333 207.502 18.16C208.542 18.5867 209.435 19.2533 210.182 20.16C210.955 21.04 211.355 22.2133 211.382 23.68C211.382 24.96 211.022 26.1067 210.302 27.12C209.609 28.1333 208.595 28.9333 207.262 29.52C205.955 30.08 204.422 30.36 202.662 30.36ZM222.499 12.44V23.16C222.499 23.9067 222.672 24.4533 223.019 24.8C223.392 25.12 224.005 25.28 224.859 25.28H227.459V30H223.939C219.219 30 216.859 27.7067 216.859 23.12V12.44H214.219V7.84H216.859V2.36H222.499V7.84H227.459V12.44H222.499Z"
            />
        </g>
        <g id="serde">
            <path
                    d="M15.712 1.54V15.568C15.712 17.304 15.18 18.676 14.116 19.684C13.0707 20.692 11.6893 21.196 9.972 21.196C8.25467 21.196 6.864 20.692 5.8 19.684C4.75467 18.676 4.232 17.304 4.232 15.568H7.452C7.47067 16.4267 7.68533 17.108 8.096 17.612C8.52533 18.116 9.15067 18.368 9.972 18.368C10.7933 18.368 11.4187 18.116 11.848 17.612C12.2773 17.0893 12.492 16.408 12.492 15.568V1.54H15.712ZM27.3167 21.196C26.01 21.196 24.834 20.972 23.7887 20.524C22.7434 20.0573 21.922 19.404 21.3247 18.564C20.7274 17.724 20.4287 16.744 20.4287 15.624H23.8447C23.9194 16.464 24.246 17.1547 24.8247 17.696C25.422 18.2373 26.2527 18.508 27.3167 18.508C28.418 18.508 29.2767 18.2467 29.8927 17.724C30.5087 17.1827 30.8167 16.492 30.8167 15.652C30.8167 14.9987 30.6207 14.4667 30.2287 14.056C29.8554 13.6453 29.3794 13.328 28.8007 13.104C28.2407 12.88 27.4567 12.6373 26.4487 12.376C25.1794 12.04 24.1434 11.704 23.3407 11.368C22.5567 11.0133 21.8847 10.472 21.3247 9.744C20.7647 9.016 20.4847 8.04533 20.4847 6.832C20.4847 5.712 20.7647 4.732 21.3247 3.892C21.8847 3.052 22.6687 2.408 23.6767 1.96C24.6847 1.512 25.8514 1.288 27.1767 1.288C29.062 1.288 30.602 1.764 31.7967 2.716C33.01 3.64933 33.682 4.93733 33.8127 6.58H30.2847C30.2287 5.87067 29.8927 5.264 29.2767 4.76C28.6607 4.256 27.8487 4.004 26.8407 4.004C25.926 4.004 25.1794 4.23733 24.6007 4.704C24.022 5.17067 23.7327 5.84267 23.7327 6.72C23.7327 7.31733 23.91 7.812 24.2647 8.204C24.638 8.57733 25.1047 8.876 25.6647 9.1C26.2247 9.324 26.99 9.56667 27.9607 9.828C29.2487 10.1827 30.294 10.5373 31.0967 10.892C31.918 11.2467 32.6087 11.7973 33.1687 12.544C33.7474 13.272 34.0367 14.252 34.0367 15.484C34.0367 16.4733 33.766 17.4067 33.2247 18.284C32.702 19.1613 31.9274 19.8707 30.9007 20.412C29.8927 20.9347 28.698 21.196 27.3167 21.196ZM46.6791 21.196C44.8685 21.196 43.1978 20.776 41.6671 19.936C40.1551 19.0773 38.9511 17.892 38.0551 16.38C37.1778 14.8493 36.7391 13.132 36.7391 11.228C36.7391 9.324 37.1778 7.616 38.0551 6.104C38.9511 4.592 40.1551 3.416 41.6671 2.576C43.1978 1.71733 44.8685 1.288 46.6791 1.288C48.5085 1.288 50.1791 1.71733 51.6911 2.576C53.2218 3.416 54.4258 4.592 55.3031 6.104C56.1805 7.616 56.6191 9.324 56.6191 11.228C56.6191 13.132 56.1805 14.8493 55.3031 16.38C54.4258 17.892 53.2218 19.0773 51.6911 19.936C50.1791 20.776 48.5085 21.196 46.6791 21.196ZM46.6791 18.424C47.9671 18.424 49.1151 18.1347 50.1231 17.556C51.1311 16.9587 51.9151 16.1187 52.4751 15.036C53.0538 13.9347 53.3431 12.6653 53.3431 11.228C53.3431 9.79067 53.0538 8.53067 52.4751 7.448C51.9151 6.36533 51.1311 5.53467 50.1231 4.956C49.1151 4.37733 47.9671 4.088 46.6791 4.088C45.3911 4.088 44.2431 4.37733 43.2351 4.956C42.2271 5.53467 41.4338 6.36533 40.8551 7.448C40.2951 8.53067 40.0151 9.79067 40.0151 11.228C40.0151 12.6653 40.2951 13.9347 40.8551 15.036C41.4338 16.1187 42.2271 16.9587 43.2351 17.556C44.2431 18.1347 45.3911 18.424 46.6791 18.424ZM75.7482 21H72.5562L62.9522 6.468V21H59.7602V1.512H62.9522L72.5562 16.016V1.512H75.7482V21ZM93.6253 21.196C92.3186 21.196 91.1426 20.972 90.0973 20.524C89.0519 20.0573 88.2306 19.404 87.6333 18.564C87.0359 17.724 86.7373 16.744 86.7373 15.624H90.1533C90.2279 16.464 90.5546 17.1547 91.1333 17.696C91.7306 18.2373 92.5613 18.508 93.6253 18.508C94.7266 18.508 95.5853 18.2467 96.2013 17.724C96.8173 17.1827 97.1253 16.492 97.1253 15.652C97.1253 14.9987 96.9293 14.4667 96.5373 14.056C96.1639 13.6453 95.6879 13.328 95.1093 13.104C94.5493 12.88 93.7653 12.6373 92.7573 12.376C91.4879 12.04 90.4519 11.704 89.6493 11.368C88.8653 11.0133 88.1933 10.472 87.6333 9.744C87.0733 9.016 86.7933 8.04533 86.7933 6.832C86.7933 5.712 87.0733 4.732 87.6333 3.892C88.1933 3.052 88.9773 2.408 89.9853 1.96C90.9933 1.512 92.1599 1.288 93.4853 1.288C95.3706 1.288 96.9106 1.764 98.1053 2.716C99.3186 3.64933 99.9906 4.93733 100.121 6.58H96.5933C96.5373 5.87067 96.2013 5.264 95.5853 4.76C94.9693 4.256 94.1573 4.004 93.1493 4.004C92.2346 4.004 91.4879 4.23733 90.9093 4.704C90.3306 5.17067 90.0413 5.84267 90.0413 6.72C90.0413 7.31733 90.2186 7.812 90.5733 8.204C90.9466 8.57733 91.4133 8.876 91.9733 9.1C92.5333 9.324 93.2986 9.56667 94.2693 9.828C95.5573 10.1827 96.6026 10.5373 97.4053 10.892C98.2266 11.2467 98.9173 11.7973 99.4773 12.544C100.056 13.272 100.345 14.252 100.345 15.484C100.345 16.4733 100.075 17.4067 99.5333 18.284C99.0106 19.1613 98.2359 19.8707 97.2093 20.412C96.2013 20.9347 95.0066 21.196 93.6253 21.196ZM118.252 12.908C118.252 13.4867 118.214 14.0093 118.14 14.476H106.352C106.445 15.708 106.902 16.6973 107.724 17.444C108.545 18.1907 109.553 18.564 110.748 18.564C112.465 18.564 113.678 17.8453 114.388 16.408H117.832C117.365 17.8267 116.516 18.9933 115.284 19.908C114.07 20.804 112.558 21.252 110.748 21.252C109.273 21.252 107.948 20.9253 106.772 20.272C105.614 19.6 104.7 18.6667 104.028 17.472C103.374 16.2587 103.048 14.8587 103.048 13.272C103.048 11.6853 103.365 10.2947 104 9.1C104.653 7.88667 105.558 6.95333 106.716 6.3C107.892 5.64667 109.236 5.32 110.748 5.32C112.204 5.32 113.501 5.63733 114.64 6.272C115.778 6.90667 116.665 7.80267 117.3 8.96C117.934 10.0987 118.252 11.4147 118.252 12.908ZM114.92 11.9C114.901 10.724 114.481 9.78133 113.66 9.072C112.838 8.36267 111.821 8.008 110.608 8.008C109.506 8.008 108.564 8.36267 107.78 9.072C106.996 9.76267 106.529 10.7053 106.38 11.9H114.92ZM124.585 7.812C125.052 7.028 125.668 6.42133 126.433 5.992C127.217 5.544 128.141 5.32 129.205 5.32V8.624H128.393C127.142 8.624 126.19 8.94133 125.537 9.576C124.902 10.2107 124.585 11.312 124.585 12.88V21H121.393V5.572H124.585V7.812ZM131.075 13.216C131.075 11.6667 131.392 10.2947 132.027 9.1C132.68 7.90533 133.558 6.98133 134.659 6.328C135.779 5.656 137.02 5.32 138.383 5.32C139.391 5.32 140.38 5.544 141.351 5.992C142.34 6.42133 143.124 7 143.703 7.728V0.28H146.923V21H143.703V18.676C143.18 19.4227 142.452 20.0387 141.519 20.524C140.604 21.0093 139.55 21.252 138.355 21.252C137.011 21.252 135.779 20.916 134.659 20.244C133.558 19.5533 132.68 18.6013 132.027 17.388C131.392 16.156 131.075 14.7653 131.075 13.216ZM143.703 13.272C143.703 12.208 143.479 11.284 143.031 10.5C142.602 9.716 142.032 9.11867 141.323 8.708C140.614 8.29733 139.848 8.092 139.027 8.092C138.206 8.092 137.44 8.29733 136.731 8.708C136.022 9.1 135.443 9.688 134.995 10.472C134.566 11.2373 134.351 12.152 134.351 13.216C134.351 14.28 134.566 15.2133 134.995 16.016C135.443 16.8187 136.022 17.4347 136.731 17.864C137.459 18.2747 138.224 18.48 139.027 18.48C139.848 18.48 140.614 18.2747 141.323 17.864C142.032 17.4533 142.602 16.856 143.031 16.072C143.479 15.2693 143.703 14.336 143.703 13.272ZM165.256 12.908C165.256 13.4867 165.218 14.0093 165.144 14.476H153.356C153.449 15.708 153.906 16.6973 154.728 17.444C155.549 18.1907 156.557 18.564 157.752 18.564C159.469 18.564 160.682 17.8453 161.392 16.408H164.836C164.369 17.8267 163.52 18.9933 162.288 19.908C161.074 20.804 159.562 21.252 157.752 21.252C156.277 21.252 154.952 20.9253 153.776 20.272C152.618 19.6 151.704 18.6667 151.032 17.472C150.378 16.2587 150.052 14.8587 150.052 13.272C150.052 11.6853 150.369 10.2947 151.004 9.1C151.657 7.88667 152.562 6.95333 153.72 6.3C154.896 5.64667 156.24 5.32 157.752 5.32C159.208 5.32 160.505 5.63733 161.644 6.272C162.782 6.90667 163.669 7.80267 164.304 8.96C164.938 10.0987 165.256 11.4147 165.256 12.908ZM161.924 11.9C161.905 10.724 161.485 9.78133 160.664 9.072C159.842 8.36267 158.825 8.008 157.612 8.008C156.51 8.008 155.568 8.36267 154.784 9.072C154 9.76267 153.533 10.7053 153.384 11.9H161.924Z"
            />
        </g>
    </defs>
    <g id="logo">
        <g id="text" transform="translate(37.5, 40) scale(0.7)">
            <use href="#gear"/>
            <use y="-46.150227px" transform="translate(-10, 10) scale(2)" href="#checkmark"
                 x="-22.46788px"/>
        </g>
        <g id="main_group" transform="translate(80, 0)" fill="#222222">
            <use href="#googletest" transform="translate(5, 5)"/>
            <use href="#serde" transform="translate(2, 49) scale(1.2,1)"/>
        </g>
    </g>
</svg>